<?xml version="1.0" standalone="no"?>
<!DOCTYPE svg PUBLIC "-//W3C//DTD SVG 20010904//EN"
 "http://www.w3.org/TR/2001/REC-SVG-20010904/DTD/svg10.dtd">
<svg version="1.0" xmlns="http://www.w3.org/2000/svg"
 width="631.000000pt" height="631.000000pt" viewBox="0 0 631.000000 631.000000"
 preserveAspectRatio="xMidYMid meet">
<metadata>
Created by potrace 1.14, written by Peter Selinger 2001-2017
</metadata>
<g transform="translate(0.000000,631.000000) scale(0.100000,-0.100000)"
fill="#000000" stroke="none">
<path d="M2875 6279 c-1289 -122 -2351 -991 -2725 -2229 -91 -301 -124 -538
-124 -890 0 -284 11 -398 60 -640 85 -410 273 -842 517 -1179 462 -641 1149
-1089 1907 -1245 242 -49 356 -60 640 -60 284 0 398 11 640 60 332 68 692 211
984 388 739 451 1268 1198 1440 2036 49 242 60 356 60 640 0 197 -4 297 -17
390 -51 362 -142 666 -292 975 -153 315 -333 570 -579 824 -487 499 -1127 819
-1836 916 -139 19 -535 27 -675 14z m-1205 -513 c0 -2 -8 -10 -17 -17 -16 -13
-17 -12 -4 4 13 16 21 21 21 13z m1612 -299 c47 -166 312 -1091 588 -2055 276
-964 499 -1756 496 -1759 -5 -6 -3734 330 -3814 343 -22 3 -32 10 -29 18 3 7
306 438 673 957 367 519 781 1104 919 1299 138 195 433 613 655 927 223 315
410 573 415 573 6 0 49 -136 97 -303z m754 -92 c112 -63 321 -245 281 -245 -9
0 -59 6 -110 14 -136 21 -173 25 -272 26 l-90 1 -67 77 c-37 42 -79 90 -94
105 -14 16 -24 30 -22 32 5 5 163 20 246 23 56 3 70 -1 128 -33z m-2941 -335
c-10 -11 -20 -18 -23 -16 -5 6 21 35 32 36 5 0 1 -9 -9 -20z m3243 -385 c6 -8
31 -19 55 -25 79 -20 282 -93 365 -131 107 -49 311 -170 338 -200 33 -37 109
-239 144 -383 10 -43 25 -86 32 -96 7 -9 47 -62 89 -117 82 -108 158 -236 209
-348 48 -105 91 -217 87 -222 -4 -3 -498 551 -1140 1277 -114 129 -231 262
-260 294 -28 32 -56 66 -61 75 -9 15 115 -93 142 -124z m-3788 95 c-6 -11 -13
-20 -16 -20 -2 0 0 9 6 20 6 11 13 20 16 20 2 0 0 -9 -6 -20z m4895 -121 c17
-18 -3 -5 -43 30 -40 35 -75 68 -79 75 -11 17 88 -68 122 -105z m-5012 -94
c-26 -52 -49 -93 -51 -91 -4 5 86 186 93 186 3 0 -16 -43 -42 -95z m1696 -145
c-138 -197 -263 -369 -266 -366 -2 2 1 36 8 76 10 70 14 75 72 138 56 58 184
172 195 172 3 0 -2 -9 -9 -20z m-1798 -79 c-45 -109 -116 -333 -145 -456 -57
-247 -76 -399 -86 -685 l-7 -205 -1 170 c-4 411 66 778 219 1155 22 52 39 96
39 99 0 2 2 2 5 -1 3 -3 -8 -37 -24 -77z m46 -138 c-3 -10 -5 -4 -5 12 0 17 2
24 5 18 2 -7 2 -21 0 -30z m5248 -13 c10 -11 16 -20 13 -20 -3 0 -13 9 -23 20
-10 11 -16 20 -13 20 3 0 13 -9 23 -20z m-5255 -70 c0 -27 -3 -50 -7 -50 -5 0
-6 22 -5 50 5 65 12 65 12 0z m5346 -42 c8 -15 14 -31 14 -35 -1 -4 -8 6 -17
22 -8 17 -25 41 -37 55 l-21 25 24 -20 c12 -11 29 -32 37 -47z m-5339 -485 c5
-57 6 -131 3 -165 -7 -73 -18 144 -24 452 l-4 185 9 -185 c5 -102 12 -231 16
-287z m5128 367 c10 -11 16 -20 13 -20 -3 0 -13 9 -23 20 -10 11 -16 20 -13
20 3 0 13 -9 23 -20z m46 -57 c13 -16 12 -17 -3 -4 -10 7 -18 15 -18 17 0 8 8
3 21 -13z m30 -40 c13 -16 12 -17 -3 -4 -10 7 -18 15 -18 17 0 8 8 3 21 -13z
m99 -143 c6 -11 8 -20 6 -20 -3 0 -10 9 -16 20 -6 11 -8 20 -6 20 3 0 10 -9
16 -20z m30 -50 c6 -11 8 -20 6 -20 -3 0 -10 9 -16 20 -6 11 -8 20 -6 20 3 0
10 -9 16 -20z m-5539 -265 c13 -125 41 -266 73 -375 96 -331 131 -429 211
-584 30 -58 53 -106 50 -106 -10 0 -97 174 -138 276 -129 319 -205 641 -211
889 -2 72 -2 101 0 65 2 -36 9 -110 15 -165z m1236 193 c-3 -7 -5 -2 -5 12 0
14 2 19 5 13 2 -7 2 -19 0 -25z m10 -70 c-3 -8 -6 -5 -6 6 -1 11 2 17 5 13 3
-3 4 -12 1 -19z m10 -50 c-3 -8 -6 -5 -6 6 -1 11 2 17 5 13 3 -3 4 -12 1 -19z
m4442 -170 c74 -198 123 -438 141 -695 16 -228 -8 -456 -52 -498 -7 -6 -7 -2
1 11 6 12 18 80 27 150 37 296 -9 684 -116 984 -42 115 -58 169 -47 160 3 -3
23 -53 46 -112z m-5762 -415 c-2 -16 -4 -3 -4 27 0 30 2 43 4 28 2 -16 2 -40
0 -55z m6070 -35 c-3 -7 -5 -2 -5 12 0 14 2 19 5 13 2 -7 2 -19 0 -25z m-10
-70 c-2 -13 -4 -5 -4 17 -1 22 1 32 4 23 2 -10 2 -28 0 -40z m-6050 10 c-3 -7
-5 -2 -5 12 0 14 2 19 5 13 2 -7 2 -19 0 -25z m6040 -75 c-3 -10 -5 -4 -5 12
0 17 2 24 5 18 2 -7 2 -21 0 -30z m-383 -74 c29 -290 1 -627 -75 -896 -33
-118 -117 -333 -154 -397 -48 -82 -24 -59 56 54 87 124 106 147 69 85 -155
-259 -483 -601 -766 -797 -298 -208 -769 -419 -1017 -458 -29 -4 -104 -19
-167 -33 -102 -22 -180 -34 -340 -53 -190 -22 -693 -3 -676 25 3 4 -1 8 -9 8
-8 0 -11 -5 -8 -11 5 -8 3 -8 -8 0 -8 6 -34 12 -59 13 -94 6 -250 43 -455 109
-44 14 -84 27 -90 28 -55 12 -463 204 -497 234 -7 6 -53 36 -101 67 -48 30
-86 57 -84 59 2 3 58 -23 124 -56 295 -148 610 -213 1038 -214 191 0 256 4
385 23 221 33 463 98 617 166 30 14 62 25 70 25 42 0 304 159 458 280 71 55
58 36 -21 -30 -61 -51 -252 -175 -322 -208 -40 -19 -71 -36 -69 -38 10 -10
499 79 602 110 53 16 90 47 218 184 256 275 455 677 517 1047 23 136 30 161
30 104 0 -63 -35 -234 -76 -367 -7 -24 -7 -24 24 -8 44 22 168 125 229 187 51
54 51 54 62 144 6 50 11 135 11 190 l1 100 117 98 117 97 6 -52 6 -53 1 62 2
61 108 91 c59 49 110 90 113 91 4 0 10 -32 13 -71z m373 14 c-3 -10 -5 -4 -5
12 0 17 2 24 5 18 2 -7 2 -21 0 -30z m-5951 -170 c48 -129 121 -283 182 -385
27 -46 53 -93 56 -105 4 -13 11 -23 15 -23 5 0 41 -44 82 -97 175 -234 456
-482 733 -649 166 -100 448 -208 676 -258 120 -26 334 -56 406 -56 25 0 49 -6
58 -15 39 -39 466 -195 534 -195 69 0 39 -16 -53 -29 -167 -23 -215 -25 -410
-25 -305 2 -541 38 -795 123 -287 96 -530 222 -753 389 -93 70 -274 232 -259
232 4 0 -1 5 -10 10 -42 25 -216 333 -312 554 -54 123 -149 402 -162 475 -4
20 -17 77 -30 126 -13 50 -24 99 -23 110 0 11 7 -3 14 -32 8 -29 31 -96 51
-150z m5941 115 c-3 -7 -5 -2 -5 12 0 14 2 19 5 13 2 -7 2 -19 0 -25z m-10
-50 c-3 -7 -5 -2 -5 12 0 14 2 19 5 13 2 -7 2 -19 0 -25z m-10 -40 c-3 -8 -6
-5 -6 6 -1 11 2 17 5 13 3 -3 4 -12 1 -19z m-10 -40 c-3 -8 -6 -5 -6 6 -1 11
2 17 5 13 3 -3 4 -12 1 -19z m-10 -40 c-3 -8 -6 -5 -6 6 -1 11 2 17 5 13 3 -3
4 -12 1 -19z m-5547 -160 c18 -29 26 -47 19 -41 -16 13 -63 93 -55 93 2 0 19
-24 36 -52z m5441 -155 c-12 -20 -14 -14 -5 12 4 9 9 14 11 11 3 -2 0 -13 -6
-23z m-20 -50 c-12 -20 -14 -14 -5 12 4 9 9 14 11 11 3 -2 0 -13 -6 -23z m-28
-8 c-3 -9 -8 -14 -10 -11 -3 3 -2 9 2 15 9 16 15 13 8 -4z m8 -42 c-12 -20
-14 -14 -5 12 4 9 9 14 11 11 3 -2 0 -13 -6 -23z m-5087 -149 c37 -37 64 -69
61 -72 -5 -5 -52 41 -114 111 -44 49 -16 28 53 -39z m44 -4 c0 -9 -3 -7 -8 5
-5 11 -8 29 -8 40 0 16 2 15 8 -5 4 -14 8 -32 8 -40z m4988 28 c-18 -26 -22
-17 -5 14 6 11 13 17 16 15 3 -3 -2 -16 -11 -29z m-1185 -125 c-29 -94 -105
-266 -129 -295 -8 -10 -21 -18 -28 -18 -6 0 -44 -14 -84 -31 -40 -17 -74 -29
-76 -27 -2 2 37 21 87 42 l90 38 43 87 c42 84 96 226 96 253 0 11 18 38 26 38
1 0 -10 -39 -25 -87z m1084 -73 c-9 -16 -18 -30 -21 -30 -2 0 2 14 11 30 9 17
18 30 21 30 2 0 -2 -13 -11 -30z m-2045 -101 c-120 -111 -333 -240 -495 -301
-101 -37 -112 -41 -100 -30 6 5 28 15 50 22 156 49 434 215 565 337 19 18 37
33 40 32 3 0 -24 -27 -60 -60z m1982 -9 c-15 -27 -31 -50 -36 -50 -4 0 -1 11
8 25 9 14 23 36 32 50 28 43 25 28 -4 -25z m-1393 -7 c-35 -57 -139 -203 -145
-203 -7 0 1 13 72 113 35 48 66 96 69 107 4 11 11 20 16 20 6 0 0 -17 -12 -37z
m21 -193 c-8 -5 -22 -9 -30 -9 -10 0 -8 3 5 9 27 12 43 12 25 0z m-180 -30 c0
-5 -5 -10 -11 -10 -5 0 -7 5 -4 10 3 6 8 10 11 10 2 0 4 -4 4 -10z m-3419 -87
c13 -16 12 -17 -3 -4 -10 7 -18 15 -18 17 0 8 8 3 21 -13z m3294 -34 c-22 -22
-62 -59 -90 -82 -27 -22 -12 -4 35 41 91 87 120 108 55 41z m-3264 -6 c13 -16
12 -17 -3 -4 -10 7 -18 15 -18 17 0 8 8 3 21 -13z m84 -93 c10 -11 16 -20 13
-20 -3 0 -13 9 -23 20 -10 11 -16 20 -13 20 3 0 13 -9 23 -20z m2641 5 c-11
-8 -25 -15 -30 -15 -6 1 0 7 14 15 32 19 40 18 16 0z m-66 -29 c0 -2 -7 -7
-16 -10 -8 -3 -12 -2 -9 4 6 10 25 14 25 6z m459 -9 c-2 -2 -26 -19 -54 -39
-52 -36 -98 -62 -56 -31 14 10 43 32 65 49 23 18 43 30 45 28 2 -2 2 -5 0 -7z
m-534 -26 c-9 -9 -239 -89 -275 -96 -8 -2 -44 -10 -78 -20 -35 -9 -68 -15 -74
-13 -6 2 32 14 83 27 102 26 294 87 319 101 20 12 37 13 25 1z m-2355 -98 c0
-8 -9 0 -50 45 l-45 47 48 -45 c26 -24 47 -45 47 -47z m3205 37 c-21 -22 -43
-40 -48 -40 -8 0 73 79 83 80 2 0 -14 -18 -35 -40z m-535 -54 c0 -7 -91 -58
-96 -54 -2 3 17 17 44 31 50 28 52 29 52 23z m-760 -16 c0 -5 -10 -10 -22 -9
-22 0 -22 1 -3 9 11 5 21 9 23 9 1 1 2 -3 2 -9z m-55 -9 c-12 -11 -145 -30
-145 -21 0 4 33 11 73 17 39 5 74 10 77 11 2 1 0 -2 -5 -7z m-361 -29 c3 -5
-1 -9 -9 -9 -8 0 -12 4 -9 9 3 4 7 8 9 8 2 0 6 -4 9 -8z m201 3 c-22 -8 -143
-10 -139 -3 3 4 38 8 77 7 40 0 68 -2 62 -4z m845 -19 c0 -2 -7 -7 -16 -10 -8
-3 -12 -2 -9 4 6 10 25 14 25 6z m-43 -23 c-10 -9 -149 -64 -153 -60 -4 4 135
65 150 66 5 1 6 -2 3 -6z m-167 -62 c0 -16 -301 -103 -347 -100 -10 1 0 5 22
11 108 26 301 82 310 89 11 11 15 11 15 0z m-1975 -119 c-3 -3 -11 0 -18 7 -9
10 -8 11 6 5 10 -3 15 -9 12 -12z m1872 -48 c-3 -3 -12 -4 -19 -1 -8 3 -5 6 6
6 11 1 17 -2 13 -5z m216 -21 c-7 -2 -19 -2 -25 0 -7 3 -2 5 12 5 14 0 19 -2
13 -5z"/>
<path d="M3091 3471 c-20 -13 -6 -74 26 -111 58 -70 178 -97 287 -66 107 31
202 154 127 164 -17 3 -35 -9 -70 -46 -67 -72 -145 -90 -228 -53 -31 14 -48
31 -64 63 -29 57 -47 69 -78 49z"/>
<path d="M2053 3443 c-4 -10 4 -36 19 -62 53 -97 206 -135 325 -82 63 28 126
92 121 124 -5 38 -35 31 -80 -19 -52 -56 -90 -74 -160 -74 -72 0 -117 25 -148
83 -19 35 -31 47 -48 47 -12 0 -26 -8 -29 -17z"/>
<path d="M2816 3261 c-3 -5 -22 -84 -41 -177 -25 -115 -32 -171 -25 -178 7 -7
13 -7 21 1 13 13 81 341 73 354 -7 12 -21 12 -28 0z"/>
<path d="M2260 2626 c0 -30 14 -47 74 -95 219 -174 529 -216 816 -112 88 32
195 93 203 115 3 8 0 20 -8 26 -11 9 -29 3 -82 -29 -37 -22 -111 -54 -163 -72
-82 -28 -113 -33 -226 -37 -142 -5 -240 10 -339 51 -66 27 -173 96 -209 136
-31 32 -66 41 -66 17z"/>
<path d="M5400 2080 c-6 -11 -8 -20 -6 -20 3 0 10 9 16 20 6 11 8 20 6 20 -3
0 -10 -9 -16 -20z"/>
<path d="M5349 2003 c-13 -16 -12 -17 4 -4 16 13 21 21 13 21 -2 0 -10 -8 -17
-17z"/>
<path d="M5181 1639 c-7 -22 -11 -43 -8 -45 2 -2 9 14 16 37 7 22 11 43 8 45
-2 2 -9 -14 -16 -37z"/>
<path d="M5156 1565 c-3 -9 -6 -22 -5 -28 0 -7 5 -1 10 12 5 13 8 26 5 28 -2
2 -6 -3 -10 -12z"/>
<path d="M5136 1505 c-9 -26 -7 -32 5 -12 6 10 9 21 6 23 -2 3 -7 -2 -11 -11z"/>
<path d="M5101 1413 c-10 -26 -10 -27 4 -9 8 11 15 23 15 28 0 15 -7 8 -19
-19z"/>
<path d="M5020 1240 c-11 -22 -18 -40 -15 -40 2 0 14 18 25 40 11 22 18 40 15
40 -2 0 -14 -18 -25 -40z"/>
<path d="M4975 1160 c-9 -16 -13 -30 -11 -30 3 0 12 14 21 30 9 17 13 30 11
30 -3 0 -12 -13 -21 -30z"/>
<path d="M4889 1023 c-22 -46 -22 -50 1 -15 13 18 20 35 18 37 -3 3 -11 -7
-19 -22z"/>
<path d="M4716 802 l-19 -27 26 24 c28 26 32 31 20 31 -5 0 -17 -13 -27 -28z"/>
<path d="M4675 759 c-4 -6 -5 -12 -2 -15 2 -3 7 2 10 11 7 17 1 20 -8 4z"/>
<path d="M4625 709 c-4 -6 -5 -12 -2 -15 2 -3 7 2 10 11 7 17 1 20 -8 4z"/>
<path d="M4552 640 c-29 -28 -56 -50 -60 -50 -4 0 -13 -10 -21 -22 -15 -25 64
39 113 91 45 47 28 37 -32 -19z"/>
<path d="M4353 479 c-29 -22 -53 -42 -53 -45 0 -2 25 14 55 37 48 36 62 49 53
49 -2 0 -27 -18 -55 -41z"/>
<path d="M4194 374 c-18 -14 -18 -15 4 -4 12 6 22 13 22 15 0 8 -5 6 -26 -11z"/>
<path d="M4127 339 c-22 -11 -37 -23 -34 -25 5 -5 77 35 77 42 0 6 -1 5 -43
-17z"/>
</g>
</svg>
