<?xml version="1.0" encoding="utf-8"?>
<!-- Uploaded to: SVG Repo, www.svgrepo.com, Generator: SVG Repo Mixer Tools -->
<svg fill="#000000" width="800px" height="800px" viewBox="0 0 32 32" version="1.1" xmlns="http://www.w3.org/2000/svg">
<title>ellipsis-filled</title>
<path d="M20.25 16c0 2.347-1.903 4.25-4.25 4.25s-4.25-1.903-4.25-4.25c0-2.347 1.903-4.25 4.25-4.25s4.25 1.903 4.25 4.25zM9.25 16c0 2.347-1.903 4.25-4.25 4.25s-4.25-1.903-4.25-4.25c0-2.347 1.903-4.25 4.25-4.25s4.25 1.903 4.25 4.25zM31.25 16c0 2.347-1.903 4.25-4.25 4.25s-4.25-1.903-4.25-4.25c0-2.347 1.903-4.25 4.25-4.25s4.25 1.903 4.25 4.25z"></path>
</svg>