<?xml version="1.0" encoding="UTF-8"?>
<svg id="Layer_1" data-name="Layer 1" xmlns="http://www.w3.org/2000/svg" version="1.1" viewBox="0 0 800 800">
  <defs>
    <style>
      .cls-1 {
        fill: none;
        stroke: #000;
        stroke-miterlimit: 133.3;
        stroke-width: 41px;
      }
    </style>
  </defs>
  <path class="cls-1" d="M324.4,135.7c18.4,31.9,7.5,72.7-24.4,91.1s-72.7,7.5-91.1-24.4c-18.4-31.9-7.5-72.7,24.4-91.1s72.7-7.5,91.1,24.4ZM591.1,597.6c18.4,31.9,7.5,72.7-24.4,91.1s-72.7,7.5-91.1-24.4c-18.4-31.9-7.5-72.7,24.4-91.1s72.7-7.5,91.1,24.4ZM189,367.9c18.4,31.9,7.5,72.7-24.4,91.1-31.9,18.4-72.7,7.5-91.1-24.4s-7.5-72.7,24.4-91.1c31.9-18.4,72.7-7.5,91.1,24.4ZM322.3,598.8c18.4,31.9,7.5,72.7-24.4,91.1-31.9,18.4-72.7,7.5-91.1-24.4-18.4-31.9-7.5-72.7,24.4-91.1,31.9-18.4,72.7-7.5,91.1,24.4ZM593.1,134.5c18.4,31.9,7.5,72.7-24.4,91.1-31.9,18.4-72.7,7.5-91.1-24.4-18.4-31.9-7.5-72.7,24.4-91.1,31.9-18.4,72.7-7.5,91.1,24.4ZM726.5,365.5c18.4,31.9,7.5,72.7-24.4,91.1s-72.7,7.5-91.1-24.4c-18.4-31.9-7.5-72.7,24.4-91.1,31.9-18.4,72.7-7.5,91.1,24.4ZM459.8,366.7c18.4,31.9,7.5,72.7-24.4,91.1s-72.7,7.5-91.1-24.4c-18.4-31.9-7.5-72.7,24.4-91.1,31.9-18.4,72.7-7.5,91.1,24.4Z"/>
</svg>