<?xml version="1.0" encoding="UTF-8"?>
<svg id="Layer_1" data-name="Layer 1" xmlns="http://www.w3.org/2000/svg" version="1.1" viewBox="0 0 800 800">
  <defs>
    <style>
      .cls-1 {
        fill: none;
        stroke: #fff;
        stroke-linecap: round;
        stroke-linejoin: round;
        stroke-width: 66.7px;
      }
    </style>
  </defs>
  <path class="cls-1" d="M633.3,100v133.3M566.7,166.7h133.3M633.3,566.7v133.3M566.7,633.3h133.3M333.3,166.7l-49,124.2c-6.3,15.9-9.4,23.8-14.2,30.5-4.3,5.9-9.4,11.1-15.4,15.4-6.7,4.8-14.6,7.9-30.5,14.2l-124.2,49,124.2,49c15.9,6.3,23.8,9.4,30.5,14.2,5.9,4.3,11.1,9.4,15.4,15.4,4.8,6.7,7.9,14.6,14.2,30.5l49,124.2,49-124.2c6.3-15.9,9.4-23.8,14.2-30.5,4.3-5.9,9.4-11.1,15.4-15.4,6.7-4.8,14.6-7.9,30.5-14.2l124.2-49-124.2-49c-15.9-6.3-23.8-9.4-30.5-14.2-5.9-4.3-11.1-9.4-15.4-15.4-4.8-6.7-7.9-14.6-14.2-30.5l-49-124.2Z"/>
</svg>