<?xml version="1.0" encoding="UTF-8"?>
<svg id="Layer_1" data-name="Layer 1" xmlns="http://www.w3.org/2000/svg" version="1.1" viewBox="0 0 800 800">
  <defs>
    <style>
      .cls-1 {
        stroke: #231f20;
        stroke-miterlimit: 133.3;
        stroke-width: 60px;
      }

      .cls-1, .cls-2 {
        fill: none;
      }

      .cls-2 {
        stroke: #000;
        stroke-linecap: round;
        stroke-linejoin: round;
        stroke-width: 32px;
      }
    </style>
  </defs>
  <path class="cls-1" d="M399.8,733.3c0,0,.2,0,.2,0,0,0,98.2,5.6,148.3-34.8,10.4-8.4,25.5-7.9,38.3-4.5l74.2,19.9c91.1,25.6,73.6,24.1,53.1-53.1l-19.9-74.2c-3.4-12.8-1.4-26.4,4.5-38.3,22.2-44.5,34.7,34.9,34.8-145.5.1-194.8-165-350.1-359.2-335.2S66.8,224.5,66.7,399.9c0,0,0,.2,0,.2,0,158.6,80.2,333.6,333,333.2Z"/>
  <path class="cls-2" d="M523.4,188.3v94.1M476.4,235.3h94.1M523.4,517.6v94.1M476.4,564.7h94.1M311.7,235.3l-34.6,87.7c-4.4,11.2-6.6,16.8-10,21.5-3,4.2-6.7,7.9-10.9,10.9-4.7,3.4-10.3,5.6-21.5,10l-87.7,34.6,87.7,34.6c11.2,4.4,16.8,6.6,21.5,10,4.2,3,7.9,6.7,10.9,10.9,3.4,4.7,5.6,10.3,10,21.5l34.6,87.7,34.6-87.7c4.4-11.2,6.6-16.8,10-21.5,3-4.2,6.7-7.9,10.9-10.9,4.7-3.4,10.3-5.6,21.5-10l87.7-34.6-87.7-34.6c-11.2-4.4-16.8-6.6-21.5-10-4.2-3-7.9-6.7-10.9-10.9-3.4-4.7-5.6-10.3-10-21.5l-34.6-87.7Z"/>
</svg>