<?xml version="1.0" encoding="UTF-8"?>
<svg id="Layer_1" data-name="Layer 1" xmlns="http://www.w3.org/2000/svg" version="1.1" viewBox="0 0 800 800">
  <defs>
    <style>
      .cls-1 {
        fill: #000;
        stroke-width: 0px;
      }
    </style>
  </defs>
  <path class="cls-1" d="M590.2,590.2c-.3.3-.5.6-.8.8-13.2,12.8-34.3,12.4-47.1-.8-12.8-13.2-12.4-34.3.8-47.1l109.8-109.8H66.7c-18.4,0-33.3-14.9-33.3-33.3,0-18.4,14.9-33.3,33.3-33.3h586.2s-109.8-109.8-109.8-109.8c-12.5-12.9-12.5-33.4,0-46.3,12.8-13.2,33.9-13.6,47.1-.8l166.7,166.7c13,13,13,34.1,0,47.1l-166.7,166.7Z"/>
</svg>